<svg width="304" height="61" viewBox="0 0 304 61" fill="none" xmlns="http://www.w3.org/2000/svg">
<path d="M2.4375 59.8125C1.4375 59.8125 0.833333 59.6875 0.625 59.4375C0.375 59.2292 0.333333 58.7917 0.5 58.125C0.541667 57.9167 0.75 56.9792 1.125 55.3125C1.5 53.6875 1.95833 51.6875 2.5 49.3125C3.08333 46.9792 3.6875 44.4375 4.3125 41.6875C4.97917 38.9375 5.60417 36.3542 6.1875 33.9375C5.3125 34.0208 4.66667 33.9583 4.25 33.75C3.83333 33.5 3.625 33.1875 3.625 32.8125C3.66667 32.3958 3.89583 31.9792 4.3125 31.5625C4.77083 31.1458 5.41667 30.7917 6.25 30.5C6.41667 30.4167 6.66667 30.3333 7 30.25C7.20833 29.5417 7.39583 28.8125 7.5625 28.0625C7.72917 27.4375 7.89583 26.7708 8.0625 26.0625C8.22917 25.3542 8.39583 24.6667 8.5625 24L12.9375 5.3125C13.1875 4.35417 13.5625 3.64583 14.0625 3.1875C14.6042 2.6875 15.5833 2.27083 17 1.9375C18.1667 1.64583 18.9792 1.54167 19.4375 1.625C19.8958 1.66667 20.1042 1.79167 20.0625 2C19.9375 2.45833 19.625 3.5625 19.125 5.3125C18.625 7.0625 18.0208 9.20833 17.3125 11.75C16.6458 14.25 15.9167 17.0208 15.125 20.0625C14.3333 23.0625 13.5625 26.0417 12.8125 29C15.3125 28.625 18.3542 28.3125 21.9375 28.0625C23.3125 27.8958 24.6458 27.7917 25.9375 27.75C27.2708 27.7083 28.5417 27.7083 29.75 27.75C30.3333 25.5 30.8958 23.25 31.4375 21C32.0208 18.75 32.5625 16.6667 33.0625 14.75C33.5625 12.8333 34 11.1458 34.375 9.6875C34.7917 8.1875 35.1042 7.08333 35.3125 6.375C35.5625 5.58333 35.7917 4.9375 36 4.4375C36.25 3.9375 36.5208 3.54167 36.8125 3.25C37.1458 2.95833 37.5208 2.75 37.9375 2.625C38.3542 2.5 38.8333 2.39583 39.375 2.3125C39.6667 2.3125 40.0208 2.29167 40.4375 2.25C40.7708 2.25 41.1667 2.25 41.625 2.25C42.0833 2.20833 42.6042 2.22917 43.1875 2.3125C41.6042 6.5625 40.125 10.875 38.75 15.25C37.4167 19.5833 36.1667 23.8125 35 27.9375C35.75 28.0208 36.3958 28.0833 36.9375 28.125C37.5208 28.1667 37.9792 28.2292 38.3125 28.3125C39.3125 28.4792 39.9375 28.75 40.1875 29.125C40.4792 29.5 40.3958 30.0417 39.9375 30.75L39.1875 31.6875C38.9375 32.0208 38.625 32.4167 38.25 32.875C37.875 33.2917 37.3958 33.7708 36.8125 34.3125C36.4792 34.1875 36.125 34.0625 35.75 33.9375C35.4167 33.8125 35.0833 33.6875 34.75 33.5625C34.3333 33.4375 33.9375 33.3125 33.5625 33.1875C33.2708 34.1875 33 35.1667 32.75 36.125C32.5 37.0417 32.2708 37.9792 32.0625 38.9375C31.5625 40.9792 31.0833 43.0833 30.625 45.25C30.25 47.125 29.8542 49.1875 29.4375 51.4375C29.0625 53.7292 28.7708 55.9792 28.5625 58.1875C28.2292 58.3542 27.8958 58.4583 27.5625 58.5C27.2292 58.5833 26.9375 58.6458 26.6875 58.6875C26.3958 58.7292 26.1042 58.7708 25.8125 58.8125H25.75H25.625H25.5C25.3333 58.8125 25.1667 58.8125 25 58.8125C24.8333 58.8125 24.6667 58.7708 24.5 58.6875C24.2917 58.6458 24.0833 58.5833 23.875 58.5C23.6667 58.4167 23.4583 58.3333 23.25 58.25C23.0833 58.2083 22.8958 58.125 22.6875 58C23.0208 56.625 23.2708 55.3333 23.4375 54.125C23.6458 52.9167 23.7917 51.8542 23.875 50.9375C24 49.8542 24.0833 48.8958 24.125 48.0625C24.1667 46.9792 24.0417 45.7917 23.75 44.5C23.5 43.2083 23.0833 41.9375 22.5 40.6875C21.9583 39.4375 21.2708 38.2708 20.4375 37.1875C19.6458 36.1042 18.7292 35.1875 17.6875 34.4375C16.6458 33.7292 15.6458 33.2708 14.6875 33.0625C13.7708 32.8542 12.8333 32.7917 11.875 32.875C11.5833 34.125 11.3125 35.3333 11.0625 36.5C10.8125 37.6667 10.6042 38.7917 10.4375 39.875C9.97917 42.2917 9.54167 44.6458 9.125 46.9375C8.79167 48.8958 8.4375 50.9167 8.0625 53C7.72917 55.125 7.47917 56.9375 7.3125 58.4375C6.64583 58.7708 6.02083 59.0208 5.4375 59.1875C4.85417 59.3958 4.33333 59.5417 3.875 59.625C3.375 59.75 2.89583 59.8125 2.4375 59.8125ZM27.1875 32.0625C25.7292 31.8958 24.3333 31.8125 23 31.8125C21.7083 31.7708 20.5625 31.75 19.5625 31.75C20.3958 32.2083 21.125 32.8125 21.75 33.5625C22.4167 34.3125 23.1042 35.1667 23.8125 36.125C24.4792 37 25.0208 37.9583 25.4375 39C25.8542 40.0417 26.2083 41.0417 26.5 42C26.8333 40.25 27.1875 38.5417 27.5625 36.875C27.9375 35.2083 28.2917 33.6458 28.625 32.1875C28.375 32.1458 28.125 32.125 27.875 32.125C27.6667 32.0833 27.4375 32.0625 27.1875 32.0625ZM70.875 35C69.625 36.8333 68.2083 38.625 66.625 40.375C65.0417 42.0833 63.3542 43.625 61.5625 45C59.8125 46.3333 58 47.4167 56.125 48.25C54.2917 49.0833 52.5 49.5 50.75 49.5C49.8333 49.5 48.8333 49.2708 47.75 48.8125C46.7083 48.3958 45.75 47.7292 44.875 46.8125C44 45.8958 43.2917 44.7083 42.75 43.25C42.25 41.7917 42.1042 40.0208 42.3125 37.9375C42.4792 36.2292 43 34.4375 43.875 32.5625C44.7917 30.6458 45.8958 28.8958 47.1875 27.3125C48.5208 25.7292 50 24.4167 51.625 23.375C53.2917 22.3333 54.9583 21.8125 56.625 21.8125C58.2083 21.8125 59.3542 22.2083 60.0625 23C60.7708 23.7917 61.0833 24.7708 61 25.9375C60.875 27.2292 60.5 28.4167 59.875 29.5C59.2917 30.5833 58.5833 31.5625 57.75 32.4375C56.9167 33.3125 56.0208 34.1042 55.0625 34.8125C54.1458 35.5208 53.2708 36.1667 52.4375 36.75C51.5208 37.375 50.6458 37.9792 49.8125 38.5625C48.9792 39.1042 48.25 39.6042 47.625 40.0625C47.6667 41.1042 47.8542 41.9792 48.1875 42.6875C48.5208 43.3958 48.9375 43.9792 49.4375 44.4375C49.9375 44.8542 50.5 45.1667 51.125 45.375C51.7917 45.5417 52.4583 45.625 53.125 45.625C54.5417 45.625 56.0208 45.1875 57.5625 44.3125C59.1042 43.3958 60.6042 42.3125 62.0625 41.0625C63.5625 39.7708 64.9375 38.4375 66.1875 37.0625C67.4792 35.6875 68.5417 34.5 69.375 33.5C69.6667 33.1667 69.9583 32.9792 70.25 32.9375C70.5833 32.8542 70.8333 32.8958 71 33.0625C71.2083 33.1875 71.3125 33.4375 71.3125 33.8125C71.3125 34.1458 71.1667 34.5417 70.875 35ZM54.875 25.375C54.375 25.375 53.7708 25.625 53.0625 26.125C52.3958 26.625 51.7292 27.3542 51.0625 28.3125C50.3958 29.2292 49.7708 30.375 49.1875 31.75C48.6042 33.0833 48.1667 34.625 47.875 36.375C48.375 36 48.9167 35.625 49.5 35.25C50.0833 34.8333 50.6667 34.3958 51.25 33.9375C53.0417 32.5625 54.2917 31.3542 55 30.3125C55.7083 29.2708 56.1042 28.375 56.1875 27.625C56.2708 26.8333 56.1875 26.2708 55.9375 25.9375C55.6875 25.5625 55.3333 25.375 54.875 25.375ZM65.4375 47C67.2708 39.2917 68.7292 33.1042 69.8125 28.4375C70.9375 23.7708 71.7917 20.2083 72.375 17.75C73.0417 14.8333 73.5 12.8125 73.75 11.6875C73.875 10.8958 73.9792 10.125 74.0625 9.375C74.1458 8.70833 74.1875 8.02083 74.1875 7.3125C74.1875 6.60417 74.125 5.95833 74 5.375C74.3333 5.16667 74.6875 5 75.0625 4.875C75.4792 4.75 75.875 4.64583 76.25 4.5625C76.7083 4.4375 77.1667 4.33333 77.625 4.25C78.0833 4.16667 78.5 4.125 78.875 4.125C79.2083 4.125 79.5208 4.16667 79.8125 4.25C80.1042 4.29167 80.2917 4.41667 80.375 4.625C80.625 4.83333 80.7292 5.25 80.6875 5.875C80.6875 6.5 80.6458 7.14583 80.5625 7.8125C80.3958 8.60417 80.2083 9.45833 80 10.375C79.5 12.1667 78.8125 14.75 77.9375 18.125C77.1875 21 76.1667 24.9167 74.875 29.875C73.625 34.8333 72.0417 41.0833 70.125 48.625C69.9167 48.8333 69.6667 48.9792 69.375 49.0625C69.0833 49.1458 68.8125 49.1875 68.5625 49.1875C68.2708 49.1875 67.9583 49.1667 67.625 49.125C67.3333 49.0417 67.0417 48.9167 66.75 48.75C66.5 48.5833 66.25 48.3542 66 48.0625C65.75 47.8125 65.5625 47.4583 65.4375 47ZM79.4375 47C81.2708 39.2917 82.7292 33.1042 83.8125 28.4375C84.9375 23.7708 85.7917 20.2083 86.375 17.75C87.0417 14.8333 87.5 12.8125 87.75 11.6875C87.875 10.8958 87.9792 10.125 88.0625 9.375C88.1458 8.70833 88.1875 8.02083 88.1875 7.3125C88.1875 6.60417 88.125 5.95833 88 5.375C88.3333 5.16667 88.6875 5 89.0625 4.875C89.4792 4.75 89.875 4.64583 90.25 4.5625C90.7083 4.4375 91.1667 4.33333 91.625 4.25C92.0833 4.16667 92.5 4.125 92.875 4.125C93.2083 4.125 93.5208 4.16667 93.8125 4.25C94.1042 4.29167 94.2917 4.41667 94.375 4.625C94.625 4.83333 94.7292 5.25 94.6875 5.875C94.6875 6.5 94.6458 7.14583 94.5625 7.8125C94.3958 8.60417 94.2083 9.45833 94 10.375C93.5 12.1667 92.8125 14.75 91.9375 18.125C91.1875 21 90.1667 24.9167 88.875 29.875C87.625 34.8333 86.0417 41.0833 84.125 48.625C83.9167 48.8333 83.6667 48.9792 83.375 49.0625C83.0833 49.1458 82.8125 49.1875 82.5625 49.1875C82.2708 49.1875 81.9583 49.1667 81.625 49.125C81.3333 49.0417 81.0417 48.9167 80.75 48.75C80.5 48.5833 80.25 48.3542 80 48.0625C79.75 47.8125 79.5625 47.4583 79.4375 47ZM112.875 38.0625C112.458 39.6458 111.896 41.125 111.188 42.5C110.479 43.875 109.625 45.0625 108.625 46.0625C107.667 47.0625 106.562 47.8333 105.312 48.375C104.104 48.9583 102.771 49.25 101.312 49.25C99.6042 49.25 98.25 48.875 97.25 48.125C96.2917 47.4167 95.5625 46.5208 95.0625 45.4375C94.6042 44.3542 94.3333 43.1667 94.25 41.875C94.125 40.5833 94.0625 39.375 94.0625 38.25C94.0625 37.4583 94.1667 36.5833 94.375 35.625C94.5417 34.6667 94.7917 33.6875 95.125 32.6875C95.4583 31.6875 95.875 30.6875 96.375 29.6875C96.9167 28.6875 97.5417 27.7708 98.25 26.9375C98.5 26.2292 98.875 25.6042 99.375 25.0625C99.9167 24.5208 100.521 24.0833 101.188 23.75C101.896 23.375 102.646 23.1042 103.438 22.9375C104.229 22.7292 105 22.625 105.75 22.625C105.875 22.625 105.979 22.6458 106.062 22.6875C106.188 22.7292 106.312 22.7708 106.438 22.8125C106.979 22.8542 107.646 23.0625 108.438 23.4375C109.271 23.8125 110.062 24.375 110.812 25.125C111.604 25.875 112.271 26.8333 112.812 28C113.354 29.125 113.625 30.5 113.625 32.125C113.625 32.4583 113.604 32.875 113.562 33.375C113.521 33.8333 113.479 34.2292 113.438 34.5625C114.396 34.1875 115.396 33.7292 116.438 33.1875C117.479 32.6458 118.479 32.0833 119.438 31.5C120.438 30.875 121.354 30.25 122.188 29.625C123.021 29 123.688 28.4375 124.188 27.9375C124.604 27.5625 124.958 27.3542 125.25 27.3125C125.542 27.2708 125.75 27.3542 125.875 27.5625C126 27.7708 126.021 28.0625 125.938 28.4375C125.854 28.8125 125.625 29.2292 125.25 29.6875C125.042 29.9375 124.5 30.4375 123.625 31.1875C122.792 31.9375 121.792 32.75 120.625 33.625C119.458 34.5 118.188 35.3542 116.812 36.1875C115.438 37.0208 114.125 37.6458 112.875 38.0625ZM102.312 28.5625C102.188 28.9375 102.125 29.3333 102.125 29.75C102.125 30.4167 102.167 31.125 102.25 31.875C102.333 32.5833 102.542 33.2292 102.875 33.8125C103.208 34.3958 103.729 34.8958 104.438 35.3125C105.188 35.6875 106.208 35.875 107.5 35.875C107.708 35.875 107.917 35.875 108.125 35.875C108.333 35.8333 108.542 35.7917 108.75 35.75C108.875 35.2083 108.979 34.7292 109.062 34.3125C109.188 33.8542 109.25 33.4583 109.25 33.125C109.333 32.3333 109.333 31.5208 109.25 30.6875C109.167 29.8542 109 29.1042 108.75 28.4375C108.542 27.7292 108.25 27.1667 107.875 26.75C107.542 26.2917 107.125 26.0625 106.625 26.0625C105.833 26.0625 105.062 26.2917 104.312 26.75C103.604 27.1667 102.938 27.7708 102.312 28.5625ZM98.3125 39.5625C98.3125 40.3125 98.3542 41.0625 98.4375 41.8125C98.5208 42.5208 98.6875 43.1667 98.9375 43.75C99.1875 44.2917 99.5208 44.75 99.9375 45.125C100.354 45.4583 100.896 45.625 101.562 45.625C102.312 45.625 103 45.4583 103.625 45.125C104.25 44.75 104.812 44.2917 105.312 43.75C105.812 43.1667 106.25 42.5208 106.625 41.8125C107.042 41.0625 107.396 40.2917 107.688 39.5C107.396 39.5417 107.104 39.5833 106.812 39.625C106.562 39.625 106.271 39.625 105.938 39.625C104.354 39.625 102.979 39.1667 101.812 38.25C100.688 37.2917 99.8125 36.0833 99.1875 34.625C98.9375 35.5 98.7292 36.3542 98.5625 37.1875C98.3958 38.0208 98.3125 38.8125 98.3125 39.5625ZM146.5 59.9375C145.292 59.9375 144.167 59.3958 143.125 58.3125C142.125 57.2708 141.292 55.75 140.625 53.75C140 51.7917 139.542 49.375 139.25 46.5C139 43.5833 139.021 40.2708 139.312 36.5625C139.479 34.1042 139.812 31.6042 140.312 29.0625C140.812 26.4792 141.375 24 142 21.625C142.625 19.2083 143.292 16.9375 144 14.8125C144.708 12.6875 145.354 10.8125 145.938 9.1875C146.562 7.52083 147.062 6.1875 147.438 5.1875C147.854 4.1875 148.104 3.60417 148.188 3.4375C148.312 3.22917 148.542 3.02083 148.875 2.8125C149.25 2.5625 149.667 2.35417 150.125 2.1875C150.625 2.02083 151.146 1.89583 151.688 1.8125C152.271 1.6875 152.812 1.625 153.312 1.625C153.729 1.625 154.125 1.64583 154.5 1.6875C154.833 1.72917 155.167 1.79167 155.5 1.875C155.833 1.95833 156.125 2.08333 156.375 2.25C155.917 2.54167 155.458 3 155 3.625C154.583 4.20833 154.188 4.83333 153.812 5.5C153.354 6.25 152.938 7.0625 152.562 7.9375C151.729 9.6875 150.854 11.8125 149.938 14.3125C149.021 16.8125 148.146 19.4792 147.312 22.3125C146.521 25.1042 145.812 27.9583 145.188 30.875C144.604 33.75 144.208 36.4583 144 39C143.667 44.125 143.854 47.9375 144.562 50.4375C145.271 52.9792 146.271 54.25 147.562 54.25C148.188 54.25 148.854 53.8542 149.562 53.0625C150.271 52.2708 150.979 51.25 151.688 50C152.438 48.75 153.167 47.3542 153.875 45.8125C154.583 44.2708 155.25 42.75 155.875 41.25C156.25 40.2917 156.646 39.2292 157.062 38.0625C157.521 36.8542 157.958 35.625 158.375 34.375C158.833 33.125 159.271 31.8958 159.688 30.6875C160.104 29.4375 160.479 28.3125 160.812 27.3125C160.812 26.0625 160.833 24.75 160.875 23.375C160.917 21.9583 161 20.5417 161.125 19.125C161.292 17.6667 161.5 16.25 161.75 14.875C162 13.4583 162.333 12.1667 162.75 11C163.583 8.75 164.562 7.10417 165.688 6.0625C166.812 4.97917 167.792 4.41667 168.625 4.375C169.208 4.375 169.625 4.625 169.875 5.125C170.125 5.625 170.229 6.29167 170.188 7.125C170.104 8.20833 169.917 9.52083 169.625 11.0625C169.333 12.5625 168.979 14.1875 168.562 15.9375C168.188 17.6458 167.75 19.3958 167.25 21.1875C166.75 22.9375 166.271 24.625 165.812 26.25C165.062 30.5417 164.604 34.4375 164.438 37.9375C164.271 41.3958 164.292 44.375 164.5 46.875C164.75 49.3333 165.146 51.2292 165.688 52.5625C166.271 53.9375 166.958 54.625 167.75 54.625C168.667 54.625 169.625 54 170.625 52.75C171.667 51.5 172.688 49.8542 173.688 47.8125C174.688 45.7292 175.646 43.375 176.562 40.75C177.521 38.125 178.375 35.4375 179.125 32.6875C179.917 29.8958 180.562 27.1667 181.062 24.5C181.562 21.7917 181.896 19.3542 182.062 17.1875C182.188 15.3958 182.25 13.625 182.25 11.875C182.25 10.375 182.188 8.77083 182.062 7.0625C181.938 5.35417 181.708 3.8125 181.375 2.4375C181.917 1.97917 182.646 1.60417 183.562 1.3125C184.021 1.14583 184.521 1 185.062 0.875C185.396 0.791667 185.75 0.729167 186.125 0.6875C186.458 0.645833 186.792 0.625 187.125 0.625C187.458 0.583333 187.771 0.604167 188.062 0.6875C188.312 1.27083 188.479 2.02083 188.562 2.9375C188.688 3.85417 188.771 4.75 188.812 5.625C188.854 6.66667 188.833 7.75 188.75 8.875C188.417 13.2917 187.833 17.625 187 21.875C186.208 26.125 185.229 30.1667 184.062 34C182.896 37.7917 181.583 41.2917 180.125 44.5C178.708 47.6667 177.229 50.4167 175.688 52.75C174.188 55.0833 172.667 56.8958 171.125 58.1875C169.625 59.4792 168.188 60.125 166.812 60.125C165.354 60.125 164.188 59.5 163.312 58.25C162.438 57.0417 161.771 55.5 161.312 53.625C160.854 51.7917 160.562 49.8125 160.438 47.6875C160.312 45.5625 160.271 43.6042 160.312 41.8125C159.354 44.1458 158.312 46.3958 157.188 48.5625C156.104 50.7292 154.958 52.6458 153.75 54.3125C152.583 56.0208 151.375 57.375 150.125 58.375C148.917 59.4167 147.708 59.9375 146.5 59.9375ZM208.312 38.0625C207.896 39.6458 207.333 41.125 206.625 42.5C205.917 43.875 205.062 45.0625 204.062 46.0625C203.104 47.0625 202 47.8333 200.75 48.375C199.542 48.9583 198.208 49.25 196.75 49.25C195.042 49.25 193.688 48.875 192.688 48.125C191.729 47.4167 191 46.5208 190.5 45.4375C190.042 44.3542 189.771 43.1667 189.688 41.875C189.562 40.5833 189.5 39.375 189.5 38.25C189.5 37.4583 189.604 36.5833 189.812 35.625C189.979 34.6667 190.229 33.6875 190.562 32.6875C190.896 31.6875 191.312 30.6875 191.812 29.6875C192.354 28.6875 192.979 27.7708 193.688 26.9375C193.938 26.2292 194.312 25.6042 194.812 25.0625C195.354 24.5208 195.958 24.0833 196.625 23.75C197.333 23.375 198.083 23.1042 198.875 22.9375C199.667 22.7292 200.438 22.625 201.188 22.625C201.312 22.625 201.417 22.6458 201.5 22.6875C201.625 22.7292 201.75 22.7708 201.875 22.8125C202.417 22.8542 203.083 23.0625 203.875 23.4375C204.708 23.8125 205.5 24.375 206.25 25.125C207.042 25.875 207.708 26.8333 208.25 28C208.792 29.125 209.062 30.5 209.062 32.125C209.062 32.4583 209.042 32.875 209 33.375C208.958 33.8333 208.917 34.2292 208.875 34.5625C209.833 34.1875 210.833 33.7292 211.875 33.1875C212.917 32.6458 213.917 32.0833 214.875 31.5C215.875 30.875 216.792 30.25 217.625 29.625C218.458 29 219.125 28.4375 219.625 27.9375C220.042 27.5625 220.396 27.3542 220.688 27.3125C220.979 27.2708 221.188 27.3542 221.312 27.5625C221.438 27.7708 221.458 28.0625 221.375 28.4375C221.292 28.8125 221.062 29.2292 220.688 29.6875C220.479 29.9375 219.938 30.4375 219.062 31.1875C218.229 31.9375 217.229 32.75 216.062 33.625C214.896 34.5 213.625 35.3542 212.25 36.1875C210.875 37.0208 209.562 37.6458 208.312 38.0625ZM197.75 28.5625C197.625 28.9375 197.562 29.3333 197.562 29.75C197.562 30.4167 197.604 31.125 197.688 31.875C197.771 32.5833 197.979 33.2292 198.312 33.8125C198.646 34.3958 199.167 34.8958 199.875 35.3125C200.625 35.6875 201.646 35.875 202.938 35.875C203.146 35.875 203.354 35.875 203.562 35.875C203.771 35.8333 203.979 35.7917 204.188 35.75C204.312 35.2083 204.417 34.7292 204.5 34.3125C204.625 33.8542 204.688 33.4583 204.688 33.125C204.771 32.3333 204.771 31.5208 204.688 30.6875C204.604 29.8542 204.438 29.1042 204.188 28.4375C203.979 27.7292 203.688 27.1667 203.312 26.75C202.979 26.2917 202.562 26.0625 202.062 26.0625C201.271 26.0625 200.5 26.2917 199.75 26.75C199.042 27.1667 198.375 27.7708 197.75 28.5625ZM193.75 39.5625C193.75 40.3125 193.792 41.0625 193.875 41.8125C193.958 42.5208 194.125 43.1667 194.375 43.75C194.625 44.2917 194.958 44.75 195.375 45.125C195.792 45.4583 196.333 45.625 197 45.625C197.75 45.625 198.438 45.4583 199.062 45.125C199.688 44.75 200.25 44.2917 200.75 43.75C201.25 43.1667 201.688 42.5208 202.062 41.8125C202.479 41.0625 202.833 40.2917 203.125 39.5C202.833 39.5417 202.542 39.5833 202.25 39.625C202 39.625 201.708 39.625 201.375 39.625C199.792 39.625 198.417 39.1667 197.25 38.25C196.125 37.2917 195.25 36.0833 194.625 34.625C194.375 35.5 194.167 36.3542 194 37.1875C193.833 38.0208 193.75 38.8125 193.75 39.5625ZM212.625 47.6875C212.333 48.1458 212.021 48.4375 211.688 48.5625C211.312 48.7292 211 48.75 210.75 48.625C210.458 48.5417 210.271 48.3333 210.188 48C210.104 47.6667 210.188 47.25 210.438 46.75C210.562 46.5 210.854 45.9375 211.312 45.0625C211.729 44.1875 212.25 43.1458 212.875 41.9375C213.458 40.6875 214.104 39.3542 214.812 37.9375C215.521 36.4792 216.188 35.1042 216.812 33.8125C217.479 32.5208 218.083 31.375 218.625 30.375C219.167 29.3333 219.562 28.5833 219.812 28.125C219.354 27.7083 219.042 27.4167 218.875 27.25C218.708 27.0417 218.583 26.625 218.5 26C218.417 25.4583 218.542 24.75 218.875 23.875C219.208 23 219.646 22.1667 220.188 21.375C220.729 20.5417 221.333 19.8333 222 19.25C222.667 18.6667 223.312 18.375 223.938 18.375C225.104 18.375 225.917 18.75 226.375 19.5C226.875 20.25 227.167 21.0208 227.25 21.8125C227.333 22.3542 227.292 23.0417 227.125 23.875C226.958 24.7083 226.646 25.4583 226.188 26.125C226.312 26.2083 226.479 26.3125 226.688 26.4375C226.896 26.5208 227.229 26.5625 227.688 26.5625C228.354 26.5625 228.812 26.5208 229.062 26.4375C229.354 26.3542 229.792 26.3125 230.375 26.3125C231.083 26.3125 231.667 26.5 232.125 26.875C232.583 27.2083 232.958 27.6458 233.25 28.1875C233.542 28.6875 233.75 29.25 233.875 29.875C234.042 30.4583 234.146 31 234.188 31.5C234.312 32.5417 234.042 33.625 233.375 34.75C232.708 35.875 231.896 37.1042 230.938 38.4375C230.354 39.2708 229.771 40.2083 229.188 41.25C228.604 42.2917 228.354 43.2292 228.438 44.0625C228.521 44.6042 228.667 45.0417 228.875 45.375C229.083 45.7083 229.667 45.875 230.625 45.875C231.333 45.875 232.104 45.625 232.938 45.125C233.812 44.5833 234.688 43.9167 235.562 43.125C236.479 42.2917 237.375 41.3958 238.25 40.4375C239.125 39.4375 239.938 38.4792 240.688 37.5625C241.438 36.6042 242.062 35.75 242.562 35C243.104 34.25 243.5 33.7083 243.75 33.375C243.958 33.0417 244.229 32.8125 244.562 32.6875C244.896 32.5625 245.188 32.5625 245.438 32.6875C245.688 32.8125 245.833 33.0625 245.875 33.4375C245.958 33.8125 245.812 34.3125 245.438 34.9375C245.188 35.3542 244.75 36.0208 244.125 36.9375C243.542 37.8542 242.812 38.875 241.938 40C241.104 41.125 240.167 42.2917 239.125 43.5C238.083 44.6667 236.979 45.75 235.812 46.75C234.688 47.7083 233.542 48.5 232.375 49.125C231.25 49.75 230.167 50.0625 229.125 50.0625C228.042 50.0625 227.146 49.8542 226.438 49.4375C225.729 49.0208 225.146 48.5208 224.688 47.9375C224.271 47.3125 223.958 46.6458 223.75 45.9375C223.583 45.1875 223.521 44.5 223.562 43.875C223.604 43.375 223.729 42.8542 223.938 42.3125C224.188 41.7292 224.458 41.1458 224.75 40.5625C225.083 39.9375 225.417 39.3333 225.75 38.75C226.125 38.125 226.458 37.5208 226.75 36.9375C227.458 35.7292 228.021 34.7083 228.438 33.875C228.896 33 229.125 32.2708 229.125 31.6875C229.125 31.3125 229.042 30.9792 228.875 30.6875C228.708 30.3958 228.438 30.25 228.062 30.25C227.812 30.25 227.625 30.2708 227.5 30.3125C227.417 30.3125 227.312 30.3125 227.188 30.3125C227.104 30.3125 226.958 30.3333 226.75 30.375C226.583 30.375 226.312 30.375 225.938 30.375C225.396 30.375 224.938 30.2917 224.562 30.125C224.188 29.9583 223.833 29.8333 223.5 29.75C223.333 30.0417 222.958 30.6667 222.375 31.625C221.792 32.5833 221.104 33.7083 220.312 35C219.562 36.2917 218.75 37.6458 217.875 39.0625C217.042 40.4792 216.25 41.8125 215.5 43.0625C214.75 44.2708 214.125 45.3125 213.625 46.1875C213.083 47.0208 212.75 47.5208 212.625 47.6875ZM240.062 47C241.896 39.2917 243.354 33.1042 244.438 28.4375C245.562 23.7708 246.417 20.2083 247 17.75C247.667 14.8333 248.125 12.8125 248.375 11.6875C248.5 10.8958 248.604 10.125 248.688 9.375C248.771 8.70833 248.812 8.02083 248.812 7.3125C248.812 6.60417 248.75 5.95833 248.625 5.375C248.958 5.16667 249.312 5 249.688 4.875C250.104 4.75 250.5 4.64583 250.875 4.5625C251.333 4.4375 251.792 4.33333 252.25 4.25C252.708 4.16667 253.125 4.125 253.5 4.125C253.833 4.125 254.146 4.16667 254.438 4.25C254.729 4.29167 254.917 4.41667 255 4.625C255.25 4.83333 255.354 5.25 255.312 5.875C255.312 6.5 255.271 7.14583 255.188 7.8125C255.021 8.60417 254.833 9.45833 254.625 10.375C254.125 12.1667 253.438 14.75 252.562 18.125C251.812 21 250.792 24.9167 249.5 29.875C248.25 34.8333 246.667 41.0833 244.75 48.625C244.542 48.8333 244.292 48.9792 244 49.0625C243.708 49.1458 243.438 49.1875 243.188 49.1875C242.896 49.1875 242.583 49.1667 242.25 49.125C241.958 49.0417 241.667 48.9167 241.375 48.75C241.125 48.5833 240.875 48.3542 240.625 48.0625C240.375 47.8125 240.188 47.4583 240.062 47ZM274.875 36.0625C274.667 37.3542 274.458 38.5833 274.25 39.75C274.083 40.9167 273.979 41.8542 273.938 42.5625C273.896 43.6042 274.083 44.3542 274.5 44.8125C274.917 45.2708 275.375 45.5 275.875 45.5C276.458 45.5 277.167 45.2083 278 44.625C278.875 44.0417 279.792 43.3125 280.75 42.4375C281.708 41.5625 282.667 40.6042 283.625 39.5625C284.583 38.5208 285.458 37.5417 286.25 36.625C287.083 35.6667 287.771 34.8333 288.312 34.125C288.896 33.4167 289.292 32.9583 289.5 32.75C289.75 32.5 290 32.3542 290.25 32.3125C290.542 32.2708 290.771 32.3125 290.938 32.4375C291.104 32.5625 291.188 32.7917 291.188 33.125C291.188 33.4583 291.021 33.875 290.688 34.375C290.188 35.1667 289.542 36.1042 288.75 37.1875C287.958 38.2292 287.083 39.3125 286.125 40.4375C285.167 41.5625 284.146 42.6667 283.062 43.75C282.021 44.8333 280.958 45.7917 279.875 46.625C278.833 47.4583 277.812 48.125 276.812 48.625C275.854 49.1667 274.979 49.4375 274.188 49.4375C273.604 49.4375 273.042 49.2708 272.5 48.9375C272 48.6042 271.542 48.1667 271.125 47.625C270.708 47.0833 270.375 46.4792 270.125 45.8125C269.917 45.1458 269.833 44.4792 269.875 43.8125C269.917 43.5208 269.979 43.0208 270.062 42.3125C268.312 44.2708 266.542 45.8333 264.75 47C263 48.125 261.312 48.6875 259.688 48.6875C259.104 48.6875 258.479 48.5417 257.812 48.25C257.146 47.9583 256.542 47.4792 256 46.8125C255.5 46.1458 255.083 45.2708 254.75 44.1875C254.417 43.1042 254.292 41.7917 254.375 40.25C254.5 37.8333 254.979 35.5417 255.812 33.375C256.646 31.2083 257.688 29.3333 258.938 27.75C260.229 26.125 261.667 24.8542 263.25 23.9375C264.875 22.9792 266.5 22.5 268.125 22.5C268.833 22.5 269.479 22.6875 270.062 23.0625C270.646 23.3958 271.146 23.8542 271.562 24.4375C271.979 24.9792 272.312 25.5833 272.562 26.25C272.854 26.9167 273.062 27.5417 273.188 28.125C273.479 26.9167 273.75 25.7292 274 24.5625C274.25 23.3958 274.5 22.2917 274.75 21.25C275.167 19.7083 275.604 18.0417 276.062 16.25C276.479 14.7083 276.958 12.9375 277.5 10.9375C278.042 8.9375 278.646 6.83333 279.312 4.625C279.729 4.29167 280.125 4.04167 280.5 3.875C280.875 3.70833 281.229 3.58333 281.562 3.5C281.938 3.375 282.292 3.3125 282.625 3.3125C283.042 3.3125 283.417 3.375 283.75 3.5C284.083 3.58333 284.354 3.85417 284.562 4.3125C284.812 4.72917 284.979 5.375 285.062 6.25C285.146 7.125 285.146 8.3125 285.062 9.8125C284.979 11.6458 284.646 13.6458 284.062 15.8125C283.521 17.9792 282.792 20.2292 281.875 22.5625C280.958 24.8542 279.896 27.1667 278.688 29.5C277.521 31.7917 276.25 33.9792 274.875 36.0625ZM271.188 36.875C271.354 36.0833 271.5 35.2917 271.625 34.5C271.792 33.7083 271.979 32.8958 272.188 32.0625C272.104 32.1042 272.021 32.1458 271.938 32.1875C271.896 32.2292 271.833 32.2708 271.75 32.3125C271.292 32.5208 270.979 32.5208 270.812 32.3125C270.646 32.0625 270.562 31.6875 270.562 31.1875C270.562 30.9375 270.542 30.5 270.5 29.875C270.458 29.2083 270.333 28.5417 270.125 27.875C269.958 27.1667 269.688 26.5625 269.312 26.0625C268.938 25.5208 268.417 25.25 267.75 25.25C266.792 25.25 265.812 25.75 264.812 26.75C263.812 27.7083 262.875 28.8958 262 30.3125C261.125 31.6875 260.396 33.1667 259.812 34.75C259.229 36.3333 258.896 37.75 258.812 39C258.729 41 258.979 42.4375 259.562 43.3125C260.146 44.1875 260.938 44.625 261.938 44.625C262.688 44.625 263.5 44.3333 264.375 43.75C265.292 43.1667 266.167 42.4583 267 41.625C267.875 40.7917 268.667 39.9375 269.375 39.0625C270.125 38.1875 270.729 37.4583 271.188 36.875ZM299.375 1.0625C299.792 0.979167 300.229 0.9375 300.688 0.9375C301.062 0.9375 301.458 0.979167 301.875 1.0625C302.333 1.14583 302.75 1.3125 303.125 1.5625L293.625 36.75C293.5 37.2083 293.125 37.6667 292.5 38.125C291.875 38.5833 291.208 38.9583 290.5 39.25C289.833 39.5 289.229 39.6458 288.688 39.6875C288.188 39.6875 287.979 39.4792 288.062 39.0625C288.229 38.3958 288.604 36.7708 289.188 34.1875C289.438 33.0625 289.75 31.6875 290.125 30.0625C290.5 28.3958 290.938 26.3958 291.438 24.0625C291.979 21.7292 292.604 19.0208 293.312 15.9375C294.021 12.8125 294.833 9.25 295.75 5.25C295.792 4.95833 295.833 4.66667 295.875 4.375C295.917 4.16667 295.917 3.9375 295.875 3.6875C295.875 3.4375 295.833 3.25 295.75 3.125C296.083 2.75 296.458 2.4375 296.875 2.1875C297.292 1.89583 297.688 1.66667 298.062 1.5C298.521 1.33333 298.958 1.1875 299.375 1.0625ZM289.75 43.25C290.833 43.0833 291.708 43.1875 292.375 43.5625C293.042 43.8958 293.333 44.5417 293.25 45.5C293.208 46.0417 292.979 46.5625 292.562 47.0625C292.146 47.5208 291.646 47.9375 291.062 48.3125C290.521 48.6875 289.938 48.9792 289.312 49.1875C288.729 49.3958 288.208 49.5 287.75 49.5C286.875 49.5 286.125 49.3125 285.5 48.9375C284.875 48.5625 284.604 47.9583 284.688 47.125C284.729 46.5833 284.917 46.1042 285.25 45.6875C285.542 45.2292 285.917 44.8333 286.375 44.5C286.875 44.1667 287.417 43.8958 288 43.6875C288.583 43.4792 289.167 43.3333 289.75 43.25Z" fill="black"/>
</svg>
